# xmcd
#
# Track frame offsets: 
#        150
#        18841
#        36583
#        59660
#        79429
#        108990
#        129725
#        149112
#        180341
#        212671
#        232080
#        260641
#
# Disc length: 3921 seconds
#
# Revision: 0
# Processed by: cddbd v1.4PL0 Copyright (c) Steve Scherf et al.
# Submitted via: ExactAudioCopy v0.90b3
#
DISCID=ba0f4f0c
DTITLE=Anders Osborne and Big Chief Monk Boudreaux - Bury the Hatchet
DYEAR=2002
DGENRE=
TTITLE0=I'm the Big Chief
TTITLE1=Drive in the Gumbo
TTITLE2=Smoke It Right
TTITLE3=Junko Partner
TTITLE4=They Don't Know
TTITLE5=Meet the Boyz on the Battlefront
TTITLE6=Summertime in New Orleans
TTITLE7=Search Until You Find It
TTITLE8=Letters From Rome
TTITLE9=Ohio
TTITLE10=Take Me Downtown
TTITLE11=Holding On
EXTD=
EXTT0=
EXTT1=
EXTT2=
EXTT3=
EXTT4=
EXTT5=
EXTT6=
EXTT7=
EXTT8=
EXTT9=
EXTT10=
EXTT11=
PLAYORDER=
